<svg width="40" height="40" viewBox="0 0 32 22" fill="none" xmlns="http://www.w3.org/2000/svg">
    <path d="M0.227539 1.10003C0.605402 0.410977 1.22455 0.203429 2.05312 0.20758C6.98355 0.228335 11.914 0.220033 16.8399 0.220033C18.1692 0.220033 18.6017 0.614373 18.6017 1.8223C18.6017 5.50834 18.5972 9.19437 18.6108 12.8763C18.6108 13.2332 18.5744 13.391 18.1009 13.391C12.1416 13.3702 6.18685 13.3744 0.227539 13.3702C0.227539 9.27739 0.227539 5.18871 0.227539 1.10003Z" stroke="#F15A24" stroke-miterlimit="10"/>
    <path d="M0.227611 14.6487C5.13073 14.6404 10.0338 14.6362 14.937 14.6279C16.3847 14.6279 17.8324 14.6072 19.2801 14.6404C19.8128 14.6528 19.9903 14.5449 19.9858 14.0219C19.9539 10.8298 19.9858 7.6336 19.9584 4.44152C19.9539 3.93926 20.095 3.80228 20.6459 3.81473C22.4214 3.84794 24.1969 3.83963 25.9678 3.82303C27.0923 3.81058 27.9528 4.20492 28.5491 5.07662C29.4597 6.41322 30.3793 7.74567 31.2943 9.07813C31.6221 9.55964 31.7724 10.0868 31.7678 10.6555C31.7633 12.3366 31.7769 14.0177 31.7632 15.703C31.7496 17.2887 30.7526 18.1728 29.0044 18.1936C28.9589 18.1936 28.9088 18.2019 28.8633 18.1936C28.1166 18.0608 27.8162 18.2808 27.6705 19.0279C27.3564 20.6634 25.5535 21.863 23.7507 21.7966C21.8614 21.7261 20.2817 20.46 20.0131 18.7374C19.9448 18.3098 19.831 18.1811 19.3484 18.1853C17.1085 18.2102 14.8641 18.2019 12.6243 18.1894C12.2282 18.1894 12.0324 18.2185 11.9687 18.6751C11.7183 20.4683 10.0839 21.7717 8.15363 21.7966C6.22334 21.8257 4.52979 20.5181 4.22932 18.7125C4.15648 18.2725 3.99714 18.1479 3.53278 18.1853C3.02289 18.2268 2.5039 18.1687 1.99401 18.2019C1.19276 18.2517 0.600922 17.9902 0.218506 17.3385C0.227611 16.4377 0.227611 15.5411 0.227611 14.6487ZM28.7722 9.80454C28.0939 8.7253 27.4929 7.74982 26.8692 6.78265C26.628 6.40907 26.2319 6.22228 25.7584 6.21397C24.8251 6.20152 23.8919 6.22228 22.9586 6.20152C22.6126 6.19322 22.5261 6.30529 22.5352 6.60416C22.5534 7.54228 22.558 8.47624 22.5352 9.41435C22.5261 9.72982 22.6445 9.80869 22.9722 9.80869C24.8616 9.80039 26.7509 9.80454 28.7722 9.80454ZM6.54202 18.1728C6.51926 18.9159 7.25222 19.6091 8.08534 19.6257C8.90481 19.6464 9.66509 18.9906 9.70606 18.2351C9.74703 17.4879 8.95944 16.7449 8.12632 16.7408C7.32051 16.7366 6.56023 17.4215 6.54202 18.1728ZM23.8828 19.6257C24.7068 19.6298 25.4488 18.9532 25.4534 18.2019C25.4579 17.4589 24.7204 16.7574 23.9101 16.7408C23.0861 16.7242 22.2803 17.4547 22.2939 18.2061C22.3076 18.9532 23.0587 19.6215 23.8828 19.6257Z" stroke="#423F40" stroke-miterlimit="10"/>
</svg>