<svg width="19" height="18" viewBox="0 0 9 6" fill="none" xmlns="http://www.w3.org/2000/svg">
    <path d="M8 3.3C8.16569 3.3 8.3 3.16568 8.3 3C8.3 2.83431 8.16569 2.7 8 2.7L8 3.3ZM0.787868 2.78787C0.670711 2.90503 0.670711 3.09497 0.787868 3.21213L2.69706 5.12132C2.81421 5.23848 3.00416 5.23848 3.12132 5.12132C3.23848 5.00416 3.23848 4.81421 3.12132 4.69706L1.42426 3L3.12132 1.30294C3.23848 1.18579 3.23848 0.995836 3.12132 0.878679C3.00416 0.761522 2.81421 0.761522 2.69706 0.878679L0.787868 2.78787ZM8 2.7L4.5 2.7L4.5 3.3L8 3.3L8 2.7ZM4.5 2.7L1 2.7L1 3.3L4.5 3.3L4.5 2.7Z" fill="white"/>
</svg>