<svg fill="#ffffff" width="800px" height="800px" viewBox="0 0 32 32" version="1.1" xmlns="http://www.w3.org/2000/svg">
    <title>box-open</title>
    <path d="M29.742 5.39c-0.002-0.012-0.010-0.022-0.012-0.034-0.014-0.057-0.032-0.106-0.055-0.152l0.002 0.004c-0.017-0.046-0.036-0.086-0.059-0.124l0.002 0.003c-0.033-0.044-0.069-0.082-0.108-0.117l-0.001-0.001c-0.023-0.028-0.046-0.053-0.071-0.076l-0-0-0.023-0.011c-0.044-0.027-0.095-0.050-0.149-0.067l-0.005-0.002c-0.034-0.016-0.073-0.031-0.115-0.043l-0.005-0.001-0.028-0.010-12.999-2c-0.034-0.006-0.074-0.009-0.114-0.009s-0.080 0.003-0.119 0.009l0.004-0.001-13.026 2.010c-0.054 0.014-0.101 0.032-0.146 0.054l0.004-0.002c-0.052 0.018-0.096 0.039-0.138 0.064l0.003-0.002-0.024 0.011c-0.025 0.023-0.047 0.048-0.068 0.074l-0.001 0.001c-0.041 0.036-0.078 0.075-0.11 0.118l-0.001 0.002c-0.020 0.034-0.039 0.074-0.055 0.115l-0.002 0.005c-0.021 0.042-0.039 0.090-0.052 0.141l-0.001 0.005c-0.003 0.013-0.011 0.023-0.013 0.036l-1 6.75c-0.005 0.033-0.008 0.071-0.008 0.11 0 0.361 0.255 0.663 0.595 0.734l0.005 0.001 1.445 0.296c-0.025 0.065-0.041 0.14-0.044 0.218l-0 0.002v12.5c0 0 0 0 0 0 0 0.36 0.254 0.66 0.592 0.733l0.005 0.001 12 2.5c0.046 0.010 0.099 0.016 0.153 0.016s0.107-0.006 0.158-0.017l-0.005 0.001 11.999-2.5c0.344-0.073 0.597-0.374 0.598-0.734v-12.5c-0.004-0.080-0.020-0.155-0.046-0.225l0.002 0.005 1.445-0.296c0.345-0.072 0.6-0.373 0.6-0.734 0-0.039-0.003-0.077-0.009-0.115l0.001 0.004zM16 4.259l8.351 1.285-8.351 1.446-8.351-1.446zM3.629 6.37l11.295 1.955-2.364 5.319-9.714-1.987zM4.75 13.578l8.1 1.657c0.046 0.010 0.099 0.016 0.153 0.016 0.303 0 0.564-0.181 0.681-0.441l0.002-0.005 1.564-3.52v16.294l-10.5-2.188zM27.25 25.391l-10.5 2.188v-16.294l1.564 3.52c0.12 0.264 0.382 0.445 0.685 0.445h0c0 0 0 0 0 0 0.053 0 0.105-0.006 0.155-0.017l-0.005 0.001 8.1-1.657zM19.441 13.645l-2.365-5.319 11.295-1.955 0.783 5.287z"></path>
</svg>