<svg width="76" height="76" viewBox="0 0 76 76" fill="none" xmlns="http://www.w3.org/2000/svg">
    <g clip-path="url(#clip0_15_244)">
        <path d="M52.66 23.563C48.6734 19.5808 43.3768 17.3848 37.7456 17.3848C32.1097 17.3848 26.813 19.5808 22.8312 23.563C17.5722 28.8222 18.0623 36.0749 18.4958 42.5076C18.5995 44.0062 18.6938 45.42 18.7126 46.7631L14.8768 50.6086C14.6365 50.8489 14.5045 51.1646 14.5045 51.5039C14.5045 51.8433 14.6365 52.1637 14.8768 52.4088L24.2543 61.7868C24.4946 62.0272 24.815 62.1591 25.1543 62.1591H25.1685H25.1826C25.5549 62.1214 25.8423 61.9989 26.0591 61.7821L29.9467 57.8518C30.9457 57.8659 32.0296 57.9225 33.2312 57.9838C34.6355 58.0545 36.3884 58.144 38.1367 58.144C42.6841 58.144 48.4425 57.602 52.6553 53.389C56.6419 49.4068 58.8331 44.1099 58.8331 38.4783C58.8378 32.8421 56.6419 27.5451 52.66 23.563ZM38.1367 55.5992C36.5204 55.5992 34.9323 55.5191 33.3631 55.439C31.9683 55.3683 30.6536 55.3023 29.419 55.3023C29.075 55.3023 28.7545 55.4342 28.5142 55.6793L25.1496 59.0771L17.5769 51.5039L20.8944 48.1816C21.1347 47.9412 21.2667 47.6208 21.2667 47.2815C21.2667 45.6368 21.1441 43.8648 21.0358 42.2955C20.6211 36.155 20.197 29.8025 24.636 25.3585C28.1419 21.857 32.7977 19.9249 37.7503 19.9249C42.7029 19.9249 47.3587 21.8523 50.8599 25.3538C54.3612 28.8552 56.2932 33.516 56.2932 38.4689C56.2932 43.4218 54.3612 48.0779 50.8599 51.5793C47.3021 55.1421 42.1893 55.5992 38.1367 55.5992Z" fill="#404345"/>
        <path d="M13.3311 60.6557C13.0908 60.4154 12.7703 60.2834 12.431 60.2834C12.0918 60.2834 11.7713 60.4154 11.531 60.6557C11.0315 61.1506 11.0315 61.9611 11.531 62.456L13.7693 64.6897C14.0097 64.9301 14.3301 65.062 14.6694 65.062C15.0134 65.062 15.3291 64.9301 15.5694 64.6897C16.0642 64.1949 16.0642 63.389 15.5694 62.8895L13.3311 60.6557Z" fill="#404345"/>
        <path d="M13.7787 54.8735C13.5384 54.6332 13.218 54.5012 12.8787 54.5012C12.5394 54.5012 12.219 54.6332 11.9786 54.8735C11.4791 55.3683 11.4791 56.1789 11.9786 56.6737L19.9848 64.6804C20.2252 64.9208 20.5456 65.0527 20.8849 65.0527C21.2242 65.0527 21.5446 64.9208 21.7849 64.6804C22.0253 64.4401 22.1619 64.1196 22.1619 63.7803C22.1619 63.441 22.03 63.1206 21.7896 62.8802L13.7787 54.8735Z" fill="#404345"/>
        <path d="M40.7048 43.4973L33.1981 43.2946L33.4008 35.7828C33.4102 35.4434 33.2877 35.1183 33.052 34.8732C32.8164 34.6282 32.5007 34.4868 32.1096 34.4727C31.4357 34.4727 30.875 35.0287 30.8561 35.7121L30.6205 44.4963C30.6111 44.8356 30.7336 45.1561 30.9692 45.4059C31.2048 45.6509 31.5205 45.7923 31.8598 45.8017L40.6718 46.0421C41.3551 46.0421 41.9253 45.486 41.9442 44.8074C41.963 44.1052 41.407 43.5208 40.7048 43.4973Z" fill="#404345"/>
        <path d="M17.0868 18.3555C17.4261 18.3555 17.7466 18.2235 17.9869 17.9832C18.4817 17.4884 18.4817 16.6778 17.9822 16.183L12.9306 11.1311C12.6903 10.8907 12.3698 10.7588 12.0305 10.7588C11.6913 10.7588 11.3708 10.8907 11.1305 11.1311C10.6357 11.6259 10.6357 12.4365 11.1305 12.9313L16.1868 17.9785C16.4271 18.2235 16.7476 18.3555 17.0868 18.3555Z" fill="#404345"/>
        <path d="M59.8133 58.0168C59.573 57.7765 59.2525 57.6445 58.9132 57.6445C58.5739 57.6445 58.2535 57.7765 58.0132 58.0215C57.5184 58.5211 57.5184 59.3269 58.0132 59.8218L63.0695 64.8689C63.3098 65.1093 63.6302 65.2412 63.9695 65.2412C64.3088 65.2412 64.6245 65.1093 64.8696 64.8689C65.3644 64.3741 65.3644 63.5636 64.8649 63.0687L59.8133 58.0168Z" fill="#404345"/>
        <path d="M38.0048 9.6938C38.7116 9.6938 39.2818 9.12358 39.2818 8.4214L39.2724 1.26769C39.2677 0.570224 38.6975 0 37.9953 0C37.2932 0 36.723 0.570224 36.723 1.2724L36.7277 8.4214C36.7324 9.12358 37.3026 9.6938 38.0048 9.6938Z" fill="#404345"/>
        <path d="M37.9953 66.3108C37.2932 66.3155 36.723 66.8857 36.723 67.5879L36.7277 74.7369C36.7277 75.4391 37.2979 76.0093 38.0001 76.0093C38.7022 76.0093 39.2724 75.4391 39.2724 74.7369L39.2677 67.5879C39.2677 66.8763 38.6975 66.3108 37.9953 66.3108Z" fill="#404345"/>
        <path d="M74.7276 36.7253L67.5791 36.7348C66.877 36.7348 66.3068 37.305 66.3068 38.0072C66.3115 38.7093 66.8817 39.2796 67.5838 39.2796L74.7324 39.2701C75.0716 39.2701 75.3921 39.1382 75.6324 38.8978C75.8727 38.6575 76.0047 38.337 76 37.9977C76 37.2956 75.4298 36.7253 74.7276 36.7253Z" fill="#404345"/>
        <path d="M8.42088 36.7253L1.27232 36.7348C0.570189 36.7348 0 37.305 0 38.0072C0 38.7093 0.570189 39.2796 1.27232 39.2796L8.42088 39.2701C8.76017 39.2701 9.08061 39.1382 9.32093 38.8978C9.56126 38.6575 9.6932 38.337 9.6932 37.9977C9.6932 37.2956 9.12302 36.7253 8.42088 36.7253Z" fill="#404345"/>
        <path d="M58.9179 18.3602C59.2619 18.3602 59.5823 18.2282 59.8179 17.9879L64.8695 12.9313C65.1098 12.691 65.2418 12.3705 65.2418 12.0312C65.2418 11.6919 65.1098 11.3714 64.8695 11.1311C64.6292 10.8907 64.3087 10.7588 63.9694 10.7588C63.6302 10.7588 63.3097 10.8907 63.0694 11.1311L58.0178 16.1877C57.523 16.6825 57.523 17.4931 58.0178 17.9926C58.2581 18.2283 58.5786 18.3602 58.9179 18.3602Z" fill="#404345"/>
    </g>
    <defs>
        <clipPath id="clip0_15_244">
            <rect width="76" height="76" fill="white"/>
        </clipPath>
    </defs>
</svg>
