<svg width="30" height="28" viewBox="0 0 24 23" fill="none" xmlns="http://www.w3.org/2000/svg">
    <g>
        <path d="M11.9957 22.9994C8.7044 22.9994 5.41311 22.999 2.12182 22.9998C1.76689 22.9998 1.42919 22.9292 1.1169 22.759C0.516451 22.4317 0.152475 21.9299 0.0279913 21.2562C0.00903876 21.1537 0.00128544 21.0499 -0.000437524 20.9461C-0.00172974 20.8603 0.021961 20.7768 0.0353139 20.6924C0.090018 20.3568 0.146445 20.0217 0.202441 19.6866C0.261883 19.3312 0.321756 18.9763 0.381199 18.6209C0.444517 18.2414 0.506544 17.862 0.569863 17.4825C0.637058 17.0789 0.705546 16.6757 0.772742 16.2721C0.83606 15.8926 0.898087 15.5131 0.961406 15.1336C1.0286 14.73 1.09709 14.3269 1.16428 13.9233C1.23148 13.5197 1.29781 13.1161 1.36501 12.7125C1.43608 12.2847 1.50888 11.8574 1.57995 11.4297C1.64327 11.0502 1.70529 10.6707 1.76861 10.2913C1.84012 9.86353 1.91205 9.43624 1.98355 9.00851C2.02146 8.78367 2.05419 8.55796 2.09856 8.33441C2.16576 7.99541 2.27086 7.66934 2.43798 7.36438C2.73132 6.82897 3.18101 6.50764 3.77543 6.38143C4.06618 6.31983 4.36038 6.30346 4.6563 6.30389C5.0823 6.30433 5.5083 6.30389 5.9343 6.30389C5.94464 6.30389 5.95455 6.30389 5.96489 6.30389C6.01356 6.30346 6.01313 6.30303 6.02433 6.25694C6.06008 6.10877 6.09411 5.95973 6.13288 5.81242C6.40812 4.77003 6.81861 3.78622 7.40959 2.88166C7.80975 2.26915 8.28055 1.7178 8.84525 1.25002C9.32423 0.852873 9.85017 0.535848 10.436 0.322201C10.7853 0.194702 11.1445 0.109415 11.515 0.069356C11.8199 0.0366197 12.1253 0.0340353 12.4303 0.0633257C12.9515 0.113292 13.4494 0.252421 13.925 0.470806C14.5448 0.755095 15.0871 1.15051 15.5708 1.62821C16.1472 2.19678 16.6102 2.84892 16.991 3.56094C17.4178 4.35867 17.7237 5.20163 17.933 6.08077C17.9464 6.13634 17.9576 6.1919 17.9713 6.24747C17.9886 6.31682 17.9795 6.30476 18.0411 6.30476C18.1777 6.30562 18.3142 6.30433 18.4508 6.30519C18.8501 6.30691 19.2498 6.29657 19.6491 6.31165C19.9515 6.32285 20.2491 6.36764 20.5351 6.47145C20.9771 6.63169 21.3074 6.9233 21.54 7.32906C21.6964 7.60172 21.7968 7.89505 21.8704 8.19915C21.9243 8.42098 21.954 8.64712 21.9923 8.87197C22.0483 9.20106 22.1021 9.53057 22.1569 9.85966C22.2124 10.1931 22.268 10.526 22.3235 10.8594C22.3783 11.1868 22.4325 11.5141 22.4872 11.8411C22.5381 12.146 22.5893 12.4514 22.6406 12.7564C22.7004 13.1156 22.7607 13.4753 22.8206 13.8345C22.8796 14.1899 22.9382 14.5453 22.9972 14.9006C23.0605 15.2801 23.1247 15.6591 23.188 16.0386C23.2514 16.4181 23.3134 16.7976 23.3767 17.1771C23.4482 17.6048 23.5206 18.0321 23.5916 18.4598C23.6588 18.8634 23.7252 19.267 23.7924 19.6706C23.8591 20.0721 23.9268 20.4735 23.994 20.875C24.0034 20.9318 24.0004 20.9891 23.9957 21.0456C23.947 21.6632 23.683 22.1694 23.1984 22.5549C22.8745 22.8125 22.5027 22.9559 22.0897 22.9912C22.0104 22.9981 21.9311 22.9994 21.8515 22.9994C18.5662 22.9994 15.2809 22.9994 11.9957 22.9994ZM5.83954 7.34973C5.81801 7.34887 5.79991 7.34715 5.78182 7.34715C5.30887 7.34715 4.83635 7.34715 4.36339 7.34672C4.257 7.34672 4.1519 7.35404 4.04723 7.3717C3.71513 7.4277 3.46315 7.59698 3.30377 7.89807C3.21935 8.05787 3.16034 8.22715 3.12803 8.40376C3.07376 8.69795 3.0281 8.99387 2.97942 9.28893C2.91266 9.69253 2.8459 10.0961 2.7787 10.4997C2.7115 10.9033 2.64302 11.3065 2.57582 11.7101C2.5125 12.0896 2.45048 12.4691 2.38716 12.8486C2.31608 13.2759 2.24372 13.7032 2.17222 14.1309C2.1089 14.5104 2.04687 14.8898 1.98355 15.2693C1.91205 15.6971 1.84012 16.1243 1.76861 16.5521C1.70529 16.9316 1.64327 17.311 1.57995 17.6905C1.50069 18.1665 1.42014 18.642 1.34089 19.1176C1.25129 19.6534 1.1617 20.1897 1.0734 20.726C1.06134 20.8 1.04023 20.8733 1.04411 20.9495C1.0622 21.3083 1.22287 21.5874 1.51965 21.7869C1.70271 21.9101 1.9086 21.9561 2.12785 21.9561C4.1351 21.9553 6.14235 21.9557 8.15003 21.9557C12.7189 21.9557 17.2882 21.9557 21.8571 21.9557C21.9243 21.9557 21.9923 21.9561 22.0582 21.9445C22.4958 21.8666 22.784 21.6154 22.9162 21.1907C22.955 21.0658 22.9658 20.937 22.9382 20.8048C22.9063 20.6536 22.8861 20.4998 22.8611 20.3473C22.8064 20.0182 22.7521 19.6887 22.697 19.3596C22.6419 19.0284 22.5859 18.6972 22.5307 18.3659C22.476 18.0368 22.4218 17.7073 22.3666 17.3782C22.3115 17.047 22.2555 16.7158 22.2004 16.3845C22.1457 16.0554 22.0909 15.7259 22.0362 15.3968C21.9807 15.0634 21.9251 14.7305 21.8695 14.3971C21.8148 14.0697 21.7606 13.7424 21.7063 13.4154C21.6507 13.082 21.5952 12.7491 21.5396 12.4157C21.4849 12.0883 21.4306 11.7609 21.3763 11.434C21.3208 11.1006 21.2652 10.7677 21.2097 10.4343C21.1549 10.1069 21.1007 9.77997 21.0464 9.45261C20.9908 9.11922 20.9361 8.78582 20.8793 8.45286C20.8431 8.24266 20.7785 8.04193 20.6717 7.85671C20.5403 7.62928 20.349 7.47809 20.0953 7.40573C19.9571 7.3661 19.8162 7.34801 19.6732 7.34801C19.1843 7.34715 18.695 7.34758 18.2061 7.34758C18.191 7.34758 18.1738 7.34155 18.1609 7.35576C18.1785 7.53021 18.1979 7.70423 18.2139 7.87868C18.2388 8.1466 18.2518 8.41539 18.2582 8.68417C18.2608 8.78582 18.269 8.88791 18.2539 8.98913C18.1966 9.38024 17.7366 9.56762 17.4234 9.32683C17.283 9.21872 17.2176 9.07313 17.2163 8.89738C17.2145 8.68546 17.2115 8.47354 17.1995 8.26204C17.1831 7.9812 17.1577 7.70165 17.1224 7.42253C17.1129 7.34715 17.1116 7.34715 17.0353 7.34715C13.679 7.34715 10.3227 7.34715 6.96593 7.34715C6.95387 7.34715 6.94138 7.34672 6.92932 7.34715C6.88667 7.34801 6.88624 7.34801 6.88064 7.39022C6.83628 7.74429 6.80397 8.09879 6.79148 8.45544C6.78588 8.61439 6.78459 8.77333 6.78071 8.93227C6.77296 9.25361 6.46325 9.49224 6.15011 9.42246C5.90846 9.36818 5.74133 9.161 5.74004 8.91203C5.73875 8.71044 5.74349 8.50842 5.75512 8.30727C5.76847 8.07725 5.78484 7.84767 5.81111 7.61895C5.82102 7.53021 5.83007 7.44191 5.83954 7.34973ZM7.08438 6.30389C7.11152 6.30389 7.13133 6.30389 7.15115 6.30389C10.383 6.30389 13.6148 6.30389 16.8467 6.30389C16.8609 6.30389 16.8751 6.30389 16.8893 6.30346C16.9048 6.30303 16.9104 6.29442 16.9074 6.27934C16.9053 6.26944 16.9035 6.25953 16.901 6.24962C16.742 5.59533 16.5254 4.96128 16.2342 4.3535C15.9443 3.74788 15.5915 3.18318 15.1483 2.67749C14.7684 2.24373 14.3381 1.86942 13.8337 1.58556C13.1397 1.19488 12.3993 1.02086 11.6028 1.10959C11.2337 1.15051 10.8805 1.24872 10.5411 1.39733C10.0311 1.62045 9.58612 1.93834 9.18726 2.32385C8.71603 2.77915 8.33439 3.30206 8.01478 3.87236C7.64434 4.53269 7.37169 5.23221 7.17354 5.96146C7.14253 6.07259 7.11496 6.18458 7.08438 6.30389Z" fill="white"/>
    </g>
    <defs>
        <clipPath id="clip0_495_41">
            <rect width="24" height="22.9572" fill="white" transform="translate(0 0.0427246)"/>
        </clipPath>
    </defs>
</svg>