<svg width="73" height="58" viewBox="0 0 73 58" fill="none" xmlns="http://www.w3.org/2000/svg">
    <g clip-path="url(#clip0_15_267)">
        <path d="M72.7486 36.56C73.0367 36.0946 73.0733 35.5235 72.8429 35.0316L70.1297 29.2142L72.8429 23.402C73.0733 22.9049 73.0419 22.3337 72.7486 21.8683C72.6857 21.7678 72.6124 21.6779 72.5338 21.5933C72.2405 21.2972 71.832 21.1279 71.4182 21.1279H64.4728C63.8599 21.1279 63.3047 21.4876 63.0481 22.0429L60.5444 27.4055H57.3912C57.0088 20.2606 54.0494 13.5652 49.0263 8.49348C43.6051 3.0145 36.3926 0 28.7192 0C21.0457 0 13.8384 3.0145 8.412 8.49348C2.98558 13.9725 0 21.2549 0 28.9974C0 36.7399 2.98558 44.0222 8.412 49.5012C13.8384 54.9802 21.0509 57.9947 28.7192 57.9947C36.3926 57.9947 43.6051 54.9802 49.0263 49.5012C54.0494 44.4295 57.0088 37.7288 57.3912 30.5892H60.3401L63.0428 36.3855C63.1214 36.5548 63.2262 36.7028 63.3571 36.8351C63.6557 37.1365 64.0485 37.3004 64.4728 37.3004H71.4182C71.8372 37.3004 72.2353 37.1365 72.5338 36.8351C72.6124 36.7557 72.6857 36.6658 72.7486 36.56ZM46.8002 47.2536C41.9709 52.1297 35.5493 54.811 28.7192 54.8163C21.889 54.8163 15.4674 52.1297 10.6433 47.2536C5.81402 42.3775 3.15319 35.8937 3.15319 29.0026C3.15319 22.1063 5.81402 15.6225 10.6433 10.7517C15.4726 5.87563 21.8942 3.18902 28.7192 3.18902C35.5493 3.18902 41.9657 5.87563 46.795 10.7517C51.2262 15.2259 53.8504 21.1226 54.2328 27.4108H48.2983C47.9316 22.7198 45.9203 18.3197 42.61 14.9773C38.9016 11.233 33.9675 9.16513 28.7192 9.17042C23.4708 9.17042 18.5368 11.233 14.8284 14.9773C11.12 18.7216 9.07197 23.7035 9.0772 29.0026C9.0772 34.3018 11.12 39.2837 14.8336 43.028C18.542 46.7723 23.4761 48.8402 28.7244 48.8402C33.9727 48.8402 38.9068 46.7776 42.6152 43.028C45.9255 39.6856 47.9369 35.2855 48.3035 30.5945H54.238C53.8556 36.8826 51.2262 42.7794 46.8002 47.2536ZM27.1426 28.9974C27.1426 29.4204 27.3049 29.8224 27.6035 30.1238C27.9021 30.4253 28.2949 30.5892 28.7192 30.5892H35.1251C34.8422 31.7739 34.2503 32.8422 33.3861 33.7095C32.1395 34.9682 30.4791 35.661 28.7139 35.661C26.954 35.661 25.2936 34.9682 24.047 33.7042C22.8004 32.4455 22.109 30.769 22.109 28.9921C22.109 27.2098 22.7951 25.5386 24.0418 24.2746C25.2884 23.016 26.9488 22.3232 28.7139 22.3232C30.4686 22.3232 32.1238 23.016 33.3704 24.2746C34.2346 25.1473 34.8317 26.2208 35.1198 27.4002H28.7139C27.8497 27.4055 27.1426 28.1195 27.1426 28.9974ZM38.3463 27.4055C38.0164 25.3852 37.0578 23.4919 35.6122 22.0323C33.7685 20.1707 31.3224 19.1447 28.7244 19.1447C26.1159 19.1447 23.6699 20.1707 21.8261 22.0323C19.9824 23.8939 18.9663 26.3689 18.9663 28.9974C18.9663 31.6258 19.9824 34.0956 21.8261 35.9624C23.6699 37.824 26.1212 38.85 28.7244 38.85C31.3329 38.85 33.7789 37.824 35.6227 35.9624C37.084 34.4869 38.0216 32.6359 38.3516 30.5892H45.1241C44.7627 34.4393 43.0918 38.0356 40.3891 40.7698C37.2726 43.9165 33.1347 45.6458 28.7296 45.6458C24.3246 45.6458 20.1815 43.9165 17.0702 40.7698C13.9536 37.6231 12.2409 33.4451 12.2409 28.9974C12.2409 24.5497 13.9536 20.3664 17.0702 17.2249C20.1867 14.0782 24.3246 12.3489 28.7296 12.3489C33.1347 12.3489 37.2726 14.0782 40.3891 17.2249C43.0971 19.9592 44.7627 23.5554 45.1241 27.4055H38.3463ZM65.4732 24.317H68.9302L67.4898 27.4055H64.0328L65.4732 24.317ZM65.4732 34.1167L63.8285 30.5945H67.2855L68.9302 34.122L65.4732 34.1167Z" fill="#404345"/>
    </g>
    <defs>
        <clipPath id="clip0_15_267">
            <rect width="73" height="58" fill="white"/>
        </clipPath>
    </defs>
</svg>
