<svg width="25" height="19" viewBox="0 0 25 19" fill="none" xmlns="http://www.w3.org/2000/svg">
    <g clip-path="url(#clip0_45_1127)">
        <path d="M0.000140357 0.783922C0.300592 0.178718 0.790919 -0.00340832 1.44543 -1.46559e-05C5.35242 0.0192161 9.2594 0.00903512 13.1653 0.0101663C14.2185 0.0101663 14.5625 0.357452 14.5625 1.4208C14.5625 4.66514 14.5592 7.90949 14.5681 11.1538C14.5692 11.466 14.5391 11.6075 14.1627 11.6063C9.44146 11.5882 4.72024 11.5905 -0.000976562 11.5871C0.000140357 7.98528 0.000140357 4.3846 0.000140357 0.783922Z" fill="#F05A22"/>
        <path d="M0 12.7115C3.88576 12.7058 7.77152 12.6991 11.6573 12.6934C12.8044 12.6923 13.9526 12.6753 15.0996 12.7025C15.5207 12.7126 15.6626 12.6187 15.6592 12.1561C15.6358 9.34499 15.657 6.53277 15.6369 3.72169C15.6335 3.28051 15.7452 3.15947 16.183 3.16965C17.5892 3.19906 18.9954 3.19227 20.4028 3.17644C21.2941 3.16626 21.9743 3.51128 22.4467 4.28051C23.1694 5.45698 23.8987 6.62779 24.6236 7.80313C24.885 8.22734 25.0022 8.69001 25 9.19114C24.9955 10.6719 25.0089 12.1527 24.9955 13.6334C24.9832 15.0282 24.1947 15.8088 22.8108 15.828C22.774 15.828 22.736 15.8337 22.7003 15.8269C22.1105 15.7115 21.8704 15.9049 21.7565 16.561C21.5063 18 20.0777 19.0554 18.6514 18.9966C17.1559 18.9355 15.9016 17.8201 15.6905 16.3031C15.638 15.9287 15.5442 15.8133 15.1644 15.819C13.3885 15.8405 11.6115 15.8337 9.83447 15.8235C9.52062 15.8212 9.36425 15.8506 9.31399 16.25C9.11406 17.8291 7.82179 18.9751 6.29161 18.9988C4.76366 19.0226 3.41889 17.8721 3.18099 16.2839C3.12291 15.8982 2.99558 15.7884 2.62923 15.8201C2.2249 15.8552 1.81388 15.8043 1.40844 15.8337C0.772908 15.8789 0.302685 15.647 0.00223384 15.0746C0 14.2873 0 13.4988 0 12.7115ZM22.6221 8.44793C22.086 7.49996 21.6079 6.63911 21.1142 5.78956C20.9232 5.46037 20.6083 5.29408 20.2341 5.28843C19.4936 5.27711 18.7531 5.29521 18.0137 5.27825C17.74 5.27146 17.6719 5.36874 17.6764 5.63232C17.6909 6.45698 17.6931 7.28164 17.6764 8.1063C17.6708 8.38345 17.7635 8.45358 18.0248 8.45245C19.5226 8.4434 21.0215 8.44793 22.6221 8.44793ZM5.00268 15.8133C4.98593 16.4683 5.56673 17.0758 6.22347 17.0939C6.87129 17.112 7.47666 16.535 7.50793 15.871C7.53809 15.2138 6.9182 14.5599 6.25698 14.5543C5.62145 14.5497 5.01944 15.1538 5.00268 15.8133ZM18.7464 17.095C19.3987 17.0984 19.9895 16.5034 19.9929 15.8416C19.9962 15.1855 19.4109 14.5712 18.7687 14.5565C18.1153 14.5407 17.4764 15.1832 17.4887 15.845C17.4988 16.5011 18.0941 17.0916 18.7464 17.095Z" fill="#F05A22"/>
    </g>
    <defs>
        <clipPath id="clip0_45_1127">
            <rect width="25" height="19" fill="white"/>
        </clipPath>
    </defs>
</svg>
