<svg width="20" height="21" viewBox="0 0 20 21" fill="none" xmlns="http://www.w3.org/2000/svg">
    <g clip-path="url(#clip0_495_1808)">
        <path d="M20 10.3032C20 4.78033 15.5229 0.303223 10 0.303223C4.47711 0.303223 0 4.78033 0 10.3032C0 15.2947 3.65743 19.4327 8.4398 20.1845V13.1919H5.90164V10.3032H8.4398V8.09859C8.4398 5.59435 9.93217 4.20938 12.2159 4.20938C13.3126 4.20938 14.4545 4.40724 14.4545 4.40724V6.86625H13.1939C11.9503 6.86625 11.5659 7.63505 11.5659 8.42646V10.3032H14.3414L13.9005 13.1919H11.5715V20.1789C16.3426 19.4327 20 15.2947 20 10.3032Z" fill="#F05A22"/>
        <path d="M13.8949 13.1919L14.3358 10.3033H11.5602V8.42654C11.5602 7.63514 11.9503 6.86634 13.1883 6.86634H14.4489V4.40732C14.4489 4.40732 13.307 4.20947 12.2103 4.20947C9.92652 4.20947 8.43415 5.59444 8.43415 8.09868V10.3033H5.896V13.1919H8.43415V20.1789C8.94292 20.2581 9.46298 20.3033 9.99436 20.3033C10.5257 20.3033 11.0458 20.2637 11.5546 20.1789V13.1919H13.8949Z" fill="white"/>
    </g>
    <defs>
        <clipPath id="clip0_495_1808">
            <rect width="20" height="20" fill="white" transform="translate(0 0.303223)"/>
        </clipPath>
    </defs>
</svg>