<svg width="65" height="65" viewBox="0 0 65 65" fill="none" xmlns="http://www.w3.org/2000/svg">
    <g clip-path="url(#clip0_15_257)">
        <path d="M60.1056 25.047H56.6976C55.7498 25.047 54.8849 24.4618 54.5482 23.5916L54.3669 23.1359C54.0199 22.2916 54.2219 21.3127 54.8849 20.655L57.288 18.2518C59.194 16.3458 59.194 13.2382 57.288 11.3323L53.6729 7.71713C52.751 6.79522 51.5183 6.28765 50.2131 6.28765C48.9028 6.28765 47.6753 6.79522 46.7534 7.71713L44.5056 9.96494C44.0705 10.4 43.4697 10.6486 42.8586 10.6486C42.5478 10.6486 42.2526 10.5865 41.9729 10.4673C41.7657 10.3793 41.5586 10.2912 41.3514 10.2084C40.502 9.86653 39.9478 9.02749 39.9478 8.07968V4.89442C39.953 2.19602 37.757 0 35.0586 0H29.9466C27.2482 0 25.0522 2.19602 25.0522 4.89442V8.06932C25.0522 9.01713 24.5032 9.851 23.6538 10.198C23.4466 10.2809 23.2394 10.3689 23.0323 10.457C22.7526 10.5761 22.4574 10.6382 22.1466 10.6382C21.5355 10.6382 20.9347 10.3896 20.4996 9.95458L18.2518 7.70677C17.3299 6.78486 16.0972 6.27211 14.792 6.27211C13.4817 6.27211 12.2542 6.77968 11.3323 7.70677L7.71713 11.3219C6.79522 12.2438 6.28247 13.4765 6.28247 14.7817C6.28247 16.092 6.79004 17.3195 7.71713 18.2414L10.1203 20.6446C10.7833 21.3076 10.9853 22.2813 10.6382 23.1255C10.5761 23.2757 10.5139 23.4311 10.457 23.5813C10.1203 24.4514 9.25538 25.0367 8.30757 25.0367H4.89442C2.19602 25.047 0 27.243 0 29.9414V35.0534C0 37.7518 2.19602 39.9478 4.89442 39.9478H8.61315C9.54542 39.9478 10.3741 40.4916 10.7367 41.341L10.8299 41.5482C11.2131 42.4287 11.0215 43.4335 10.3482 44.112L7.71713 46.743C6.79522 47.6649 6.28247 48.8976 6.28247 50.2028C6.28247 51.5131 6.79004 52.7406 7.71713 53.6626L11.3323 57.2777C12.2542 58.1996 13.4817 58.7072 14.792 58.7072C16.1024 58.7072 17.3299 58.1996 18.2518 57.2777L21.0434 54.4861C21.4785 54.051 22.0534 53.8128 22.6697 53.8128C22.9857 53.8128 23.2964 53.8749 23.602 53.9992C24.4825 54.3566 25.0522 55.2008 25.0522 56.1434V60.09C25.0522 62.7884 27.2482 64.9845 29.9466 64.9845H35.0586C37.757 64.9845 39.953 62.7884 39.953 60.09V56.1434C39.953 55.1801 40.5279 54.3514 41.4498 53.9785C41.7295 53.8645 42.0247 53.8076 42.3251 53.8076C42.9414 53.8076 43.5215 54.051 43.9617 54.4861L46.7534 57.2777C47.6753 58.1996 48.9028 58.7072 50.2131 58.7072C51.5235 58.7072 52.751 58.1996 53.6729 57.2777L57.288 53.6626C58.21 52.7406 58.7175 51.5131 58.7175 50.2028C58.7175 48.8924 58.21 47.6649 57.288 46.743L54.657 44.1068C53.9785 43.4283 53.7868 42.4235 54.1753 41.543L54.2685 41.3307C54.6259 40.4865 55.4598 39.9426 56.392 39.9426H60.1108C62.8092 39.9426 65.0052 37.7466 65.0052 35.0482V29.9363C65 27.243 62.804 25.047 60.1056 25.047ZM51.9016 40.3311L51.8187 40.5227C51.0056 42.3769 51.4096 44.5056 52.839 45.9351L55.4701 48.5661C56.3765 49.4725 56.3765 50.9486 55.4701 51.8498L51.855 55.4649C51.4147 55.9052 50.8347 56.1434 50.2131 56.1434C49.5916 56.1434 49.0115 55.9 48.5713 55.4649L45.7797 52.6733C44.8578 51.7514 43.6355 51.2438 42.3355 51.2438C41.688 51.2438 41.0458 51.3681 40.4347 51.6219C38.5753 52.3729 37.3789 54.1546 37.3789 56.1538V60.1004C37.3789 61.3797 36.3378 62.4259 35.0586 62.4259H29.9466C28.6673 62.4259 27.6211 61.3849 27.6211 60.1004V56.1538C27.6211 54.1546 26.404 52.3677 24.5239 51.6064C23.9335 51.3629 23.3119 51.2438 22.6749 51.2438C21.3749 51.2438 20.1474 51.7514 19.2255 52.6785L16.4339 55.4701C15.9936 55.9104 15.4135 56.1486 14.792 56.1486C14.1705 56.1486 13.5904 55.9052 13.1502 55.4701L9.53506 51.855C9.09482 51.4147 8.85657 50.8347 8.85657 50.2131C8.85657 49.5916 9.1 49.0116 9.53506 48.5713L12.1661 45.9402C13.6008 44.5056 13.9996 42.3821 13.1865 40.5279L13.1036 40.3363C12.3371 38.539 10.5761 37.3841 8.61315 37.3841H4.89442C3.61514 37.3841 2.5741 36.343 2.5741 35.0586V29.9466C2.5741 28.6673 3.61514 27.6211 4.89442 27.6211H8.30239C10.3068 27.6211 12.1351 26.3729 12.855 24.5187L13.0155 24.1147C13.7562 22.3072 13.3367 20.2355 11.9382 18.8371L9.53506 16.4339C8.62868 15.5275 8.62868 14.0566 9.53506 13.1502L13.1502 9.53506C13.5904 9.09482 14.1705 8.85657 14.792 8.85657C15.4135 8.85657 15.9936 9.1 16.4339 9.53506L18.6817 11.7829C19.5932 12.6944 20.857 13.2175 22.1518 13.2175C22.8199 13.2175 23.4621 13.0829 24.0629 12.8187C24.2442 12.741 24.4255 12.6633 24.6119 12.5857C26.4402 11.845 27.6211 10.0737 27.6211 8.0745V4.89442C27.6211 3.61514 28.6621 2.56892 29.9466 2.56892H35.0586C36.3378 2.56892 37.3789 3.60996 37.3789 4.89442V8.06932C37.3789 10.0737 38.5598 11.845 40.388 12.5805C40.5745 12.653 40.7558 12.7307 40.937 12.8135C41.5378 13.0777 42.1801 13.2124 42.843 13.2124C44.1378 13.2124 45.4016 12.6892 46.3131 11.7777L48.561 9.52988C49.0012 9.08964 49.5813 8.85139 50.2028 8.85139C50.8243 8.85139 51.4044 9.09482 51.8446 9.52988L55.4598 13.145C56.3661 14.0514 56.3661 15.5223 55.4598 16.4287L53.0566 18.8319C51.6582 20.2303 51.2335 22.302 51.9741 24.1096L52.1347 24.5135C52.8494 26.3677 54.6777 27.6159 56.6872 27.6159H60.0952C61.3745 27.6159 62.4155 28.657 62.4155 29.9414V35.0534C62.4155 36.3327 61.3745 37.3789 60.0952 37.3789H56.3765C54.4239 37.3789 52.6629 38.539 51.9016 40.3311Z" fill="#F05A22"/>
        <path d="M33.6964 16.9156C33.6964 16.206 33.1215 15.6311 32.4119 15.6311C28.0199 15.6311 23.892 17.3403 20.7844 20.4478C15.6259 25.6064 14.4657 33.396 17.9047 39.8287C17.941 39.9012 17.9928 39.9686 18.0446 40.0359C17.5267 40.7972 17.2573 41.6829 17.2573 42.6152C17.2573 43.853 17.739 45.0132 18.6091 45.8833C19.4792 46.7534 20.6394 47.2351 21.8773 47.2351C23.1151 47.2351 24.2753 46.7534 25.1454 45.8833C26.0155 45.0132 26.4972 43.853 26.4972 42.6152C26.4972 41.3773 26.0155 40.2172 25.1454 39.347C24.2804 38.4821 23.1306 38.0108 21.9031 38.0108C21.2661 38.0108 20.6342 38.1403 20.049 38.394C17.2988 33.0128 18.3087 26.5646 22.5972 22.2709C25.2179 19.6502 28.7035 18.2052 32.4067 18.2052C33.1163 18.2 33.6964 17.6251 33.6964 16.9156ZM23.3223 41.1598C24.1199 41.9574 24.1199 43.2626 23.3223 44.0602C22.9338 44.4486 22.4211 44.661 21.8721 44.661C21.3231 44.661 20.8103 44.4486 20.4219 44.0602C20.0334 43.6717 19.8211 43.159 19.8211 42.61C19.8211 42.061 20.0334 41.5482 20.4219 41.1598C20.8103 40.7713 21.3231 40.559 21.8721 40.559C22.4211 40.559 22.939 40.7765 23.3223 41.1598Z" fill="#F05A22"/>
        <path d="M46.7948 24.1407C48.1776 22.3228 48.0274 19.7176 46.396 18.0913C45.5258 17.2212 44.3657 16.7395 43.1278 16.7395C41.89 16.7395 40.7298 17.2212 39.8597 18.0913C38.0573 19.8937 38.0573 22.8252 39.8597 24.6275C40.7298 25.4977 41.89 25.9793 43.1278 25.9793C43.6665 25.9793 44.2 25.8809 44.7282 25.6841C47.5354 31.0809 46.5358 37.5758 42.2215 41.8901C39.6007 44.5108 36.1151 45.9558 32.4119 45.9558C31.7023 45.9558 31.1274 46.5307 31.1274 47.2403C31.1274 47.9499 31.7023 48.5248 32.4119 48.5248C36.8039 48.5248 40.937 46.8156 44.0394 43.708C49.2031 38.5495 50.3581 30.7598 46.9191 24.3272C46.8828 24.2598 46.8414 24.1977 46.7948 24.1407ZM41.6776 22.8044C41.2892 22.416 41.0768 21.9032 41.0768 21.3542C41.0768 20.8052 41.2892 20.2925 41.6776 19.904C42.0661 19.5156 42.5788 19.3032 43.1278 19.3032C43.6768 19.3032 44.1896 19.5156 44.578 19.904C45.3756 20.7017 45.3756 22.0068 44.578 22.8044C44.1896 23.1929 43.6768 23.4052 43.1278 23.4052C42.5788 23.4052 42.0661 23.1929 41.6776 22.8044Z" fill="#F05A22"/>
    </g>
    <defs>
        <clipPath id="clip0_15_257">
            <rect width="65" height="65" fill="white"/>
        </clipPath>
    </defs>
</svg>
