<svg width="30" height="28" viewBox="0 0 20 19" fill="none" xmlns="http://www.w3.org/2000/svg">
    <g>
        <path d="M10.0036 19C9.81394 19 9.63882 18.9184 9.50748 18.7775L1.5031 10.0265C1.5031 10.0117 1.5031 10.0117 1.5031 10.0117C0.532652 8.91413 0 7.46799 0 5.93286C0 4.41257 0.532652 2.95902 1.5031 1.85402L1.62714 1.72053C2.60489 0.615535 3.93287 0 5.34112 0C6.74206 0 8.06275 0.615535 9.05509 1.72053L9.99635 2.78845L10.9522 1.72053C11.9372 0.615535 13.2579 0 14.6589 0C16.0744 0 17.3951 0.615535 18.3729 1.72053L18.4969 1.85402C19.4673 2.9516 20 4.40515 20 5.93286C20 7.46799 19.4673 8.92155 18.4969 10.0191C18.4969 10.0191 18.4969 10.0191 18.4969 10.034L10.4998 18.7849C10.3758 18.9184 10.1861 19 10.0036 19ZM2.50274 9.07728L10.0036 17.3017L17.5046 9.07728C19.0587 7.34192 19.0587 4.52381 17.5046 2.78103L17.3805 2.64012C16.6509 1.82436 15.6877 1.37197 14.6589 1.37197C13.6592 1.37197 12.6815 1.82436 11.9518 2.64012L10.4998 4.27166C10.3758 4.41257 10.1861 4.50156 10.0036 4.50156C9.81394 4.50156 9.62422 4.40515 9.50748 4.27166L8.05545 2.64012C7.32579 1.82436 6.36994 1.37197 5.34841 1.37197C4.32689 1.37197 3.37103 1.82436 2.64137 2.64012L2.51003 2.78845C0.970449 4.52381 0.970449 7.34934 2.50274 9.07728Z" fill="white"/>
    </g>
    <defs>
        <clipPath id="clip0_495_37">
            <rect width="20" height="19" fill="white"/>
        </clipPath>
    </defs>
</svg>