<svg width="21" height="22" viewBox="0 0 21 22" fill="none" xmlns="http://www.w3.org/2000/svg">
    <g clip-path="url(#clip0_495_1797)">
        <path d="M10.5 21.3032C16.299 21.3032 21 16.6022 21 10.8032C21 5.00423 16.299 0.303223 10.5 0.303223C4.70101 0.303223 0 5.00423 0 10.8032C0 16.6022 4.70101 21.3032 10.5 21.3032Z" fill="#F05A22"/>
        <path d="M13.7587 6.83228C13.361 6.83228 13.0345 7.1528 13.0345 7.55641C13.0345 7.9541 13.3551 8.28055 13.7587 8.28055C14.1564 8.28055 14.4828 7.96003 14.4828 7.55641C14.4828 7.1528 14.1564 6.83228 13.7587 6.83228Z" fill="white"/>
        <path d="M10.5535 7.7583C8.87963 7.7583 7.52039 9.11754 7.52039 10.7914C7.52039 12.4652 8.87963 13.8244 10.5535 13.8244C12.2273 13.8244 13.5865 12.4652 13.5865 10.7914C13.5806 9.11754 12.2213 7.7583 10.5535 7.7583ZM10.5535 12.7323C9.48506 12.7323 8.61253 11.8598 8.61253 10.7914C8.61253 9.72297 9.48506 8.85044 10.5535 8.85044C11.6219 8.85044 12.4944 9.72297 12.4944 10.7914C12.4944 11.8598 11.6219 12.7323 10.5535 12.7323Z" fill="white"/>
        <path d="M12.9573 16.9466H8.0427C6.00087 16.9466 4.34485 15.2846 4.34485 13.2487V8.33408C4.34485 6.29225 6.00087 4.63623 8.0427 4.63623H12.9573C14.9992 4.63623 16.6552 6.29225 16.6552 8.33408V13.2487C16.6552 15.2846 14.9992 16.9466 12.9573 16.9466ZM8.0427 5.79366C6.64191 5.79366 5.50228 6.93329 5.50228 8.33408V13.2487C5.50228 14.6495 6.64191 15.7891 8.0427 15.7891H12.9573C14.3581 15.7891 15.4978 14.6495 15.4978 13.2487V8.33408C15.4978 6.93329 14.3581 5.79366 12.9573 5.79366H8.0427Z" fill="white"/>
    </g>
    <defs>
        <clipPath id="clip0_495_1797">
            <rect width="21" height="21" fill="white" transform="translate(0 0.303223)"/>
        </clipPath>
    </defs>
</svg>