<svg width="10" height="28" viewBox="0 0 10 28" fill="none" xmlns="http://www.w3.org/2000/svg">
    <path d="M0.349727 11.7916H1.71585V11.7858H8.28415V11.7916H9.65027C9.84153 11.7916 10 11.625 10 11.424V5.25538C10 2.35487 7.75956 0 5 0C2.24044 0 0 2.35487 0 5.25538C0 8.31097 0 10.5739 0 11.424C0 11.625 0.15847 11.7916 0.349727 11.7916ZM1.43716 5.30708C1.43716 3.23938 3.03279 1.56226 5 1.56226C6.96721 1.56226 8.56284 3.23938 8.56284 5.30708V6.55344H1.43716V5.30708Z" fill="#F05A22"/>
    <path d="M6.20764 22.3024V20.4989H6.79234C6.98359 20.4989 7.14206 20.3324 7.14206 20.1313V12.5498H2.85791V20.1313C2.85791 20.3324 3.01638 20.4989 3.20764 20.4989H3.7213V22.3024H4.22403V23.2731C3.91256 23.4052 3.33878 23.7268 3.33878 24.1059C3.33878 24.4046 3.4754 24.663 3.68851 24.8296V25.9841C3.90709 26.3172 4.49179 27.15 4.75408 27.5693H5.17485C5.54644 27.1787 6.09288 26.2425 6.31693 25.9841V24.8296C6.52458 24.663 6.66665 24.4046 6.66665 24.1059C6.66665 23.7268 6.02731 23.4052 5.71037 23.2731V22.3024H6.20764V22.3024Z" stroke="#423F40" stroke-width="1.5" stroke-miterlimit="10"/>
</svg>