<svg width="25" height='25' viewBox="0 0 14 14" fill="none" xmlns="http://www.w3.org/2000/svg">
    <path d="M10.6024 13.9994C10.2351 14.0025 9.86873 13.9362 9.50757 13.8335C9.2371 13.7568 8.97232 13.6656 8.70962 13.5666C8.37385 13.4402 8.0355 13.321 7.70077 13.1919C6.98365 12.9157 6.31834 12.5436 5.69344 12.0963C5.16648 11.7195 4.66957 11.307 4.19546 10.8664C3.58559 10.2989 3.00837 9.69982 2.47882 9.05613C2.18554 8.70008 1.91144 8.33003 1.65703 7.94496C1.24613 7.32304 0.928501 6.65499 0.678233 5.95377C0.563202 5.63193 0.4404 5.31319 0.324852 4.99186C0.21293 4.6809 0.120181 4.36372 0.059557 4.03877C0.00463266 3.7418 -0.0124664 3.4412 0.00877788 3.13853C0.049712 2.55859 0.234175 2.0227 0.510351 1.51583C0.641962 1.2738 0.788599 1.04058 0.959072 0.823944C1.02177 0.74413 1.08913 0.667945 1.16012 0.595387C1.31453 0.436797 1.49484 0.321223 1.70521 0.249702C1.94149 0.16937 2.18243 0.108214 2.42648 0.0594969C2.57416 0.0299556 2.72339 0.00715173 2.87417 0.000932501C2.93531 -0.00165884 2.99593 0.000414232 3.05656 0.00559692C3.13532 0.0123344 3.20061 0.0444671 3.25553 0.101477C3.30165 0.149676 3.34258 0.202539 3.3804 0.257476C3.44776 0.355428 3.50735 0.458564 3.56435 0.562736C3.76021 0.92086 3.95504 1.28002 4.15142 1.63814C4.25764 1.83094 4.36645 2.02218 4.47423 2.21446C4.56646 2.37875 4.66698 2.53786 4.77735 2.69075C4.8587 2.80373 4.93435 2.92034 4.99964 3.04369C5.04316 3.12609 5.07477 3.21213 5.0872 3.30593C5.09601 3.37124 5.08824 3.43239 5.067 3.49407C5.04368 3.5604 5.00793 3.61949 4.96751 3.6765C4.91569 3.75009 4.85611 3.81747 4.79393 3.88225C4.60273 4.08178 4.39547 4.26214 4.17422 4.42747C3.96747 4.58243 3.77109 4.74983 3.58663 4.93019C3.52031 4.99497 3.45657 5.06235 3.40165 5.1375C3.36901 5.18207 3.33999 5.22871 3.31874 5.28002C3.29387 5.34066 3.28506 5.4013 3.29802 5.4666C3.32548 5.60135 3.37833 5.72625 3.43844 5.84856C3.44207 5.85634 3.44569 5.86463 3.45036 5.87188C3.6799 6.24452 3.88612 6.63063 4.12603 6.99653C4.57786 7.68583 5.09705 8.31863 5.70692 8.87473C6.18621 9.31164 6.70488 9.69567 7.25723 10.0341C7.40542 10.1248 7.55672 10.2103 7.70647 10.2984C7.80596 10.3575 7.90544 10.4171 8.00389 10.4777C8.12721 10.5544 8.25675 10.6187 8.3951 10.6643C8.43344 10.6768 8.47282 10.6861 8.51168 10.6975C8.59459 10.7218 8.67231 10.7058 8.74744 10.669C8.80496 10.641 8.85677 10.6042 8.90652 10.5638C8.98994 10.4959 9.06507 10.4192 9.13813 10.3409C9.28529 10.1844 9.42415 10.0211 9.55265 9.84908C9.72468 9.61845 9.91173 9.4013 10.12 9.20228C10.1936 9.13231 10.2713 9.06753 10.3548 9.00897C10.5221 8.89132 10.6973 8.88199 10.8812 8.96439C10.9553 8.99756 11.0263 9.03695 11.0947 9.08049C11.175 9.1318 11.2553 9.18414 11.333 9.24011C11.4791 9.34532 11.6325 9.43809 11.788 9.52775C12.1916 9.76097 12.603 9.9802 13.0108 10.2056C13.1502 10.2829 13.2906 10.357 13.4305 10.4332C13.5373 10.4912 13.643 10.5524 13.743 10.6213C13.8005 10.6612 13.8554 10.7032 13.9046 10.7529C13.9513 10.8001 13.9787 10.8556 13.988 10.9209C13.9979 10.9898 14.0026 11.0592 13.9969 11.1292C13.9637 11.548 13.8668 11.9522 13.7264 12.3471C13.6683 12.5109 13.5766 12.6534 13.458 12.7799C13.3746 12.869 13.2854 12.952 13.1891 13.0266C12.731 13.3795 12.2325 13.6568 11.6802 13.833C11.3455 13.9408 10.9677 14.0046 10.6024 13.9994Z" fill="white"/>
</svg>