<svg width="35" height="35" viewBox="0 0 15 18" fill="none" xmlns="http://www.w3.org/2000/svg">
    <path fill-rule="evenodd" clip-rule="evenodd" d="M9.45404 9.51474V9.62844C9.85503 9.8678 10.2221 9.96355 10.5213 10.1102C11.5947 10.5141 12.1468 10.7564 12.1468 12.5726C12.1468 12.782 11.9988 12.9286 11.8476 12.9286H4.47563C4.27823 12.9286 4.11475 12.779 4.11475 12.5726C4.11475 10.6607 4.67921 10.5141 5.74029 10.1102C6.05799 9.96355 6.40654 9.8678 6.86613 9.62844V9.57757C6.55151 9.32624 6.45589 8.98216 6.40346 8.57824C6.3541 8.57824 6.3541 8.53336 6.30167 8.48549C6.24923 8.43163 6.24923 8.34187 6.24923 8.28801V8.24014C6.20296 8.19526 6.20296 8.1444 6.20296 8.09652L6.15361 8.04267C6.10117 7.83622 6.00247 7.543 6.20296 7.30364C6.15361 7.00444 6.15361 6.70224 6.20296 6.40304C6.24923 6.02006 6.45589 5.67598 6.96792 5.46953C7.01419 5.37079 7.11906 5.27804 7.21777 5.22418C7.41826 5.13143 7.63109 5.08057 7.88094 5.08057C8.07526 5.08057 8.33436 5.13143 8.59346 5.17631C9.25972 5.32591 9.90747 5.67598 10.0709 6.20856C10.1666 6.51374 10.1203 6.94759 10.0709 7.25277C10.3208 7.45025 10.1666 7.83323 10.1203 8.04267V8.09652C10.0709 8.1444 10.0709 8.19526 10.0709 8.24014L10.0154 8.28801C10.0154 8.38974 10.0154 8.43462 9.95682 8.48549L9.90747 8.57824C9.80876 8.93429 9.70389 9.27239 9.45404 9.51474Z" fill="#F05A22"/>
    <path fill-rule="evenodd" clip-rule="evenodd" d="M14.4386 0.54754C14.0901 0.209441 13.5719 0 13.0136 0H3.25108C2.70204 0 2.24244 0.209441 1.89389 0.54754C1.52684 0.900598 1.32326 1.33743 1.32326 1.88198V3.36004H0.360888C0.163479 3.36004 0 3.50665 0 3.70412C0 3.85073 0.163479 3.99435 0.360888 3.99435H1.32634V6.90858H0.360888C0.163479 6.90558 0 7.05219 0 7.25864C0 7.40824 0.163479 7.54887 0.360888 7.54887H1.32634V10.4631H0.360888C0.163479 10.4631 0 10.6097 0 10.7563C0 10.9478 0.163479 11.0974 0.360888 11.0974H1.32634V14.0057H0.360888C0.163479 14.0057 0 14.1044 0 14.3108C0 14.5053 0.163479 14.6011 0.360888 14.6011H1.32634V16.13C1.32634 16.6147 1.52684 17.1144 1.89389 17.4555C2.24244 17.8025 2.70204 18.003 3.25108 18.003H13.0136C13.5719 18.003 14.0932 17.8025 14.4386 17.4555C14.7841 17.1144 15 16.6147 15 16.13V1.88198C15 1.33743 14.7841 0.900598 14.4386 0.54754ZM14.3337 16.13C14.3337 16.4741 14.1857 16.7733 13.9667 17.0156C13.7168 17.261 13.3745 17.3537 13.0105 17.3537H3.25108C2.90253 17.3537 2.58482 17.261 2.33806 17.0156C2.09439 16.7733 1.94016 16.4741 1.94016 16.13V14.6011H2.33806C2.53856 14.6011 2.70204 14.5023 2.70204 14.3108C2.70204 14.1044 2.53856 14.0057 2.33806 14.0057H1.94016V11.0974H2.33806C2.53856 11.0974 2.70204 10.9478 2.70204 10.7563C2.70204 10.6097 2.53856 10.4631 2.33806 10.4631H1.94016V7.54887H2.33806C2.53856 7.54887 2.70204 7.40824 2.70204 7.25864C2.70204 7.05219 2.53856 6.90558 2.33806 6.90558H1.94016V3.99136H2.33806C2.53856 3.99136 2.70204 3.84774 2.70204 3.70113C2.70204 3.50665 2.53856 3.36004 2.33806 3.36004H1.94016V1.88198C1.94016 1.53191 2.0913 1.2387 2.33806 1.00233C2.58482 0.745013 2.90253 0.598404 3.25108 0.598404H13.0136C13.3775 0.598404 13.7199 0.745013 13.9698 1.00233C14.1888 1.2387 14.3368 1.53191 14.3368 1.88198V16.13H14.3337Z" fill="#423F40"/>
</svg>