<svg width="15" height="19" viewBox="0 0 15 19" fill="none" xmlns="http://www.w3.org/2000/svg">
<g clip-path="url(#clip0_273_1690)">
<path fill-rule="evenodd" clip-rule="evenodd" d="M14.3991 0.608226C14.0867 0.217511 13.6004 0 13.0588 0H3.2301C2.70032 0 2.20612 0.217511 1.88983 0.608226C1.50633 0.986856 1.30074 1.4823 1.30074 2.02608V3.56074H0.332103C0.170005 3.55671 0 3.72186 0 3.88298C0 4.11257 0.170005 4.27369 0.332103 4.27369H1.30074V7.27857H0.332103C0.170005 7.27857 0 7.43969 0 7.61692C0 7.8304 0.170005 7.99152 0.332103 7.99152H1.30074V10.9964H0.332103C0.170005 11.0004 0 11.1696 0 11.3307C0 11.5482 0.170005 11.7093 0.332103 11.7093H1.30074V14.7263H0.332103C0.170005 14.7303 0 14.8915 0 15.0526C0 15.2701 0.170005 15.4312 0.332103 15.4312H1.30074V16.9659C1.30074 17.5177 1.50633 18.0011 1.88983 18.3918C2.20612 18.7704 2.70032 19 3.22615 19H13.0548C13.5965 19 14.0867 18.7704 14.3991 18.3918C14.7746 18.0011 14.996 17.5137 14.996 16.9659V2.02608C15 1.4823 14.7746 0.986856 14.3991 0.608226ZM14.3556 16.9659C14.3556 17.3566 14.1974 17.6788 13.9839 17.8963C13.7072 18.1783 13.3909 18.3434 13.0588 18.3434H3.2301C2.90986 18.3434 2.58171 18.1823 2.31682 17.8963C2.10332 17.6788 1.94518 17.3526 1.94518 16.9659V15.4312H2.31682C2.52636 15.4312 2.63311 15.2701 2.63311 15.0526C2.63311 14.8915 2.52636 14.7263 2.31682 14.7263H1.94518V11.7093H2.31682C2.52636 11.7093 2.63311 11.5442 2.63311 11.3307C2.63311 11.1696 2.52636 10.9964 2.31682 10.9964H1.94518V7.99152H2.31682C2.52636 7.99152 2.63311 7.8304 2.63311 7.61692C2.63311 7.43969 2.52636 7.27857 2.31682 7.27857H1.94518V4.27369H2.31682C2.52636 4.27369 2.63311 4.11257 2.63311 3.88298C2.63311 3.72186 2.52636 3.56074 2.31682 3.56074H1.94518V2.02608C1.94518 1.64745 2.10332 1.30909 2.31682 1.09561C2.57775 0.829765 2.9059 0.664617 3.2301 0.664617H13.0588C13.3869 0.664617 13.7072 0.829765 13.9839 1.09561C14.2014 1.31312 14.3556 1.64745 14.3556 2.02608V16.9659Z" fill="#423F40"/>
<path fill-rule="evenodd" clip-rule="evenodd" d="M12.5291 2.68284C12.4223 2.52172 12.2642 2.46533 12.0388 2.46533H4.25023C4.03674 2.46533 3.87464 2.52172 3.7758 2.68284C3.6137 2.7916 3.55835 2.95272 3.55835 3.17829V7.32711C3.55835 7.56073 3.6137 7.72185 3.7758 7.83061C3.87859 7.99173 4.03674 8.04812 4.25023 8.04812H12.0388C12.2642 8.04812 12.4223 7.99173 12.5291 7.83061C12.6319 7.72185 12.7386 7.56073 12.7386 7.32711V3.17829C12.7386 2.95272 12.6279 2.7916 12.5291 2.68284ZM12.0863 7.60907C12.0863 7.60907 12.0863 7.60907 12.0388 7.66949H4.25023C4.25023 7.66949 4.25023 7.66949 4.19488 7.66949C4.19488 7.60907 4.19488 7.60907 4.19488 7.60907V3.18231V3.12995C4.25023 3.12995 4.25023 3.12995 4.25023 3.12995H12.0388C12.0863 3.12995 12.0863 3.18634 12.0863 3.18634V7.60907Z" fill="#F05A22"/>
</g>
<defs>
<clipPath id="clip0_273_1690">
<rect width="15" height="19" fill="white"/>
</clipPath>
</defs>
</svg>
