<svg width="66" height="66" viewBox="0 0 66 66" fill="none" xmlns="http://www.w3.org/2000/svg">
    <g clip-path="url(#clip0_15_262)">
        <path d="M55.156 35.5496C55.2561 34.6789 55.3061 33.8232 55.3061 33.0025C55.3061 27.0425 52.9842 21.4429 48.7706 17.2294C44.5621 13.0108 38.9575 10.6939 32.9975 10.6939C32.1768 10.6939 31.3211 10.744 30.4504 10.844L19.9716 0.365304C19.7364 0.130108 19.4212 0 19.0909 0C18.7556 0 18.4454 0.130108 18.2102 0.365304L0.365304 18.2052C0.130108 18.4404 0 18.7556 0 19.0909C0 19.4262 0.130108 19.7364 0.365304 19.9716L10.844 30.4504C10.744 31.3361 10.6939 32.1718 10.6939 33.0025C10.6939 38.9625 13.0158 44.5621 17.2294 48.7756C21.4429 52.9892 27.0425 55.3111 33.0025 55.3111C33.8382 55.3111 34.7089 55.261 35.5947 55.156C35.6447 55.236 35.7048 55.3111 35.7698 55.3761L46.0284 65.6347C46.2636 65.8699 46.5788 66 46.9091 66C47.2394 66 47.5546 65.8699 47.7898 65.6347L65.6297 47.7948C65.8649 47.5596 65.995 47.2444 65.995 46.9141C65.995 46.5788 65.8649 46.2686 65.6297 46.0334C65.6297 46.0233 55.161 35.5496 55.156 35.5496ZM3.01751 19.0909L19.0909 3.01751L27.4629 11.3895C23.5997 12.3703 20.0717 14.382 17.2294 17.2294C14.387 20.0717 12.3753 23.5997 11.3895 27.4679L3.01751 19.0909ZM48.7706 48.7706C51.618 45.9283 53.6247 42.3953 54.6105 38.5321L62.9825 46.9041L46.9091 62.9775L38.5371 54.6055C42.4003 53.6297 45.9283 51.618 48.7706 48.7706ZM52.809 32.9975C52.809 38.2869 50.7473 43.2611 47.0092 47.0042C43.2661 50.7473 38.2919 52.804 33.0025 52.804C27.7131 52.804 22.739 50.7423 18.9958 47.0042C15.2527 43.2611 13.196 38.2869 13.196 32.9975C13.196 27.7081 15.2577 22.7339 18.9958 18.9908C22.739 15.2477 27.7131 13.191 33.0025 13.191C38.2919 13.191 43.2661 15.2527 47.0092 18.9908C50.7473 22.7339 52.809 27.7081 52.809 32.9975Z" fill="#404345"/>
        <path d="M32.9975 16.9541C28.7139 16.9541 24.6855 18.6205 21.653 21.653C18.6255 24.6805 16.9591 28.7089 16.9591 32.9975C16.9591 37.2861 18.6255 41.3144 21.653 44.3419C24.6855 47.3745 28.7139 49.0408 32.9975 49.0408C37.281 49.0408 41.3094 47.3745 44.3419 44.3419C47.3745 41.3144 49.0408 37.281 49.0408 32.9975C49.0408 28.7139 47.3745 24.6805 44.3419 21.653C41.3144 18.6255 37.2861 16.9541 32.9975 16.9541ZM32.9975 46.814C29.3044 46.814 25.8365 45.3778 23.2293 42.7656C17.8448 37.3761 17.8448 28.6138 23.2293 23.2243C25.8365 20.6172 29.3094 19.176 32.9975 19.176C36.6856 19.176 40.1584 20.6122 42.7656 23.2243C45.3728 25.8315 46.814 29.3044 46.814 32.9925C46.814 36.6856 45.3778 40.1534 42.7656 42.7606C40.1584 45.3778 36.6906 46.814 32.9975 46.814Z" fill="#404345"/>
        <path d="M43.191 31.9967H34.0034V22.8091C34.0034 22.2186 33.523 21.7332 32.9275 21.7332C32.337 21.7332 31.8516 22.2136 31.8516 22.8091V33.0726C31.8516 33.6631 32.332 34.1485 32.9275 34.1485H43.191C43.7815 34.1485 44.2669 33.6681 44.2669 33.0726C44.2669 32.4771 43.7815 31.9967 43.191 31.9967Z" fill="#404345"/>
    </g>
    <defs>
        <clipPath id="clip0_15_262">
            <rect width="66" height="66" fill="white"/>
        </clipPath>
    </defs>
</svg>
